<svg width="48" height="48" viewBox="0 0 48 48" fill="none" xmlns="http://www.w3.org/2000/svg">
<path d="M36.0001 22H12.0001C10.8956 22 10.0001 22.8954 10.0001 24V40C10.0001 41.1046 10.8956 42 12.0001 42H36.0001C37.1047 42 38.0001 41.1046 38.0001 40V24C38.0001 22.8954 37.1047 22 36.0001 22Z" stroke="#007878" stroke-width="2" stroke-linecap="square"/>
<path d="M23.9999 6C29.5227 6 33.9999 10.4772 33.9999 16V22H13.9999V16C13.9999 10.4772 18.477 6 23.9999 6Z" stroke="#007878" stroke-width="2" stroke-linecap="square"/>
<path d="M24.0001 34C25.1047 34 26.0001 33.1046 26.0001 32C26.0001 30.8954 25.1047 30 24.0001 30C22.8956 30 22.0001 30.8954 22.0001 32C22.0001 33.1046 22.8956 34 24.0001 34Z" stroke="#007878" stroke-width="2" stroke-linecap="square"/>
</svg>
