<svg width="48" height="48" viewBox="0 0 48 48" fill="none" xmlns="http://www.w3.org/2000/svg">
<path d="M8.00012 34H6.00012C4.89555 34 4.00012 33.1046 4.00012 32V16C4.00012 14.8954 4.89555 14 6.00012 14H28.0001C29.1047 14 30.0001 14.8954 30.0001 16V32C30.0001 33.1046 29.1047 34 28.0001 34H16.0001" stroke="#007878" stroke-width="2" stroke-linecap="square"/>
<path d="M40 34H42C43.1046 34 44 33.1046 44 32V25.6351C44 25.2916 43.9115 24.9539 43.7432 24.6546L40.5735 19.0195C40.2192 18.3897 39.5528 18 38.8303 18H32C30.8954 18 30 18.8954 30 20V32C30 33.1046 30.8954 34 32 34V34" stroke="#007878" stroke-width="2" stroke-linecap="square"/>
<path d="M11.9999 38C14.209 38 15.9999 36.2091 15.9999 34C15.9999 31.7909 14.209 30 11.9999 30C9.79074 30 7.99988 31.7909 7.99988 34C7.99988 36.2091 9.79074 38 11.9999 38Z" stroke="#007878" stroke-width="2" stroke-linecap="square"/>
<path d="M35.9999 38C38.209 38 39.9999 36.2091 39.9999 34C39.9999 31.7909 38.209 30 35.9999 30C33.7907 30 31.9999 31.7909 31.9999 34C31.9999 36.2091 33.7907 38 35.9999 38Z" stroke="#007878" stroke-width="2" stroke-linecap="square"/>
</svg>
